<?xml version="1.0" encoding="utf-8"?>
<!-- Generator: Adobe Illustrator 25.2.0, SVG Export Plug-In . SVG Version: 6.00 Build 0)  -->
<svg version="1.1" id="Calque_1" xmlns="http://www.w3.org/2000/svg" xmlns:xlink="http://www.w3.org/1999/xlink" x="0px" y="0px"
	 viewBox="0 0 50 50" style="enable-background:new 0 0 50 50;" xml:space="preserve">
<path d="M39.7,10.3C35.8,6.3,30.5,4.1,25,4.1C13.5,4.1,4.1,13.5,4.1,25S13.5,45.9,25,45.9S45.9,36.5,45.9,25
	C45.9,19.5,43.7,14.2,39.7,10.3z M29.6,35.1c-1.4,1.1-3.1,1.7-4.8,1.7c-0.5,0-1-0.1-1.5-0.1c-1.4-0.3-2.4-1.1-2.9-2.2
	c-0.7-1.4-0.5-3.2,0.4-5l1.5-3.1c0.8-1.6,0.3-2,0.1-2.2c-0.1,0-0.2-0.1-0.6-0.1c-0.5,0-1.1,0.1-1.6,0.3c-0.3,0.1-0.7,0-0.9-0.3
	c-0.2-0.3-0.1-0.7,0.2-1c1.4-1.1,3.1-1.7,4.8-1.7c0.5,0,1,0,1.5,0.1c1.4,0.3,2.4,1.1,2.9,2.2c0.7,1.4,0.5,3.2-0.4,5l-1.5,3.1
	c-0.8,1.6-0.3,2-0.1,2.2c0.1,0,0.2,0.1,0.6,0.1c0.5,0,1.1-0.1,1.6-0.3l0,0c0.3-0.1,0.7,0,0.9,0.3C30,34.5,29.9,34.9,29.6,35.1z
	 M27.6,19.9c-2.1,0-3.8-1.7-3.8-3.9s1.7-3.9,3.8-3.9c2.1,0,3.8,1.7,3.8,3.9S29.7,19.9,27.6,19.9z"/>
</svg>
